<mxfile host="65bd71144e" modified="2021-11-04T03:39:44.710Z" agent="5.0 (Windows NT 10.0; Win64; x64) AppleWebKit/537.36 (KHTML, like Gecko) Code/1.61.2 Chrome/91.0.4472.164 Electron/13.5.1 Safari/537.36" version="15.6.8" etag="sWZP10Ya1RKeStYYLqJ4" type="embed">
    <diagram id="lZKTZh7gQBmU3k41gHW2" name="ページ1">
        <mxGraphModel dx="776" dy="430" grid="1" gridSize="10" guides="1" tooltips="1" connect="1" arrows="1" fold="1" page="1" pageScale="1" pageWidth="827" pageHeight="1169" math="0" shadow="0">
            <root>
                <mxCell id="0"/>
                <mxCell id="1" parent="0"/>
                <mxCell id="2" value="" style="rounded=0;whiteSpace=wrap;html=1;fillColor=default;strokeColor=default;fontColor=default;" vertex="1" parent="1">
                    <mxGeometry x="40" y="40" width="600" height="360" as="geometry"/>
                </mxCell>
                <mxCell id="3" value="ユーザ権限編集画面" style="text;html=1;strokeColor=none;fillColor=none;align=center;verticalAlign=middle;whiteSpace=wrap;rounded=0;fontColor=default;fontStyle=1;fontSize=20;" vertex="1" parent="1">
                    <mxGeometry x="242.5" y="50" width="195" height="50" as="geometry"/>
                </mxCell>
            </root>
        </mxGraphModel>
    </diagram>
</mxfile>